<svg id="Layer_1" data-name="Layer 1" xmlns="http://www.w3.org/2000/svg" viewBox="0 0 592.23 171.92"><defs><style>.cls-1,.cls-2{fill:#e03127;fill-rule:evenodd}.cls-2{fill:#231f20;stroke:#231f20;stroke-miterlimit:10}</style></defs><title>logoPAN</title><path class="cls-1" d="M29.35 169.29c-.13-.12-10-3.94-10.32-4-5.47-2.17 2.52-22.22 2.74-26.34.55-.55 4-.9 4.24.31 0 6.49.07 2.52 3.08 5.2a1.77 1.77 0 0 0 3 .43c0-3.69.79-1.64 3.16-1.41 1.53.85 17.36 1.26 16.61 2.76-1 1.25-1.77 4.28-.71 5.8 0 3-.94 5.62-1 8.87-1.64 3.29 1.13 6-3.73 7.34-5.81.23-11.61.28-17.07 1.04zm-16.57-5.85c-6-1.51-9.35-9-5.35-14.37 1-2.34.8-5.69 2-7.67.76-2 2-3.27 2.14-5.35 2.85-3.54.88 5.1 6.17 3.34 2.68-3.34-.81 7-.83 7.65a28.24 28.24 0 0 0-1.57 14.54c-.26 1.86-1.07 1.74-2.56 1.86z" transform="translate(-4.5 -6.1)"/><path class="cls-1" d="M29 143.13c-3.51-.75-.62-11.47 2.65-9.72 4.65.28.96 8.81-2.65 9.72z" transform="translate(-4.5 -6.1)"/><path class="cls-1" d="M49.23 141.82C46 140 39 142.61 35.54 140c-3.76-.43 1-5.42-1.1-7-2.55 0-3.48-2.78-6.2-.44-.46.78-.12 3.57-1.8 2.75-4.28-.1-2.72 0-2.56-3.16.37-1.14 3.76-12.47 4.08-12.73.83-2.92 5.26-5.36 8.09-4 4 .39 5.1-1.31 9 1 2 2.45 7 .79 9 2.33 2.22.13 3.57 1.71 5.53 2.89 3.26 0 .5 5.53-.28 7.36-.16 3.09-2 6-2.49 9.34-1.58 3.54-4.51 3.12-7.58 3.48zM15.77 138c-1.87-.93-1.43-6.8.37-7 5.79-.06 1.86 6.61-.37 7z" transform="translate(-4.5 -6.1)"/><path class="cls-1" d="M20.27 133.22c-1.48-.8 1-2.87-2.35-3.11-1.15-1-.62-1-2.1-.92-5.18.87-1.89-4.73-1.31-7.06a23.8 23.8 0 0 1 1.89-7.69c1.63-6.86 17.95-2.07 13 .22-7.1.01-5.74 17.52-9.13 18.56zM14 131.51c-.95 0 .34-2.27.34-.17a2.63 2.63 0 0 0-.34.17z" transform="translate(-4.5 -6.1)"/><path class="cls-2" d="M72.21 71c-1.73-.69-2-5.3-2.93-6.91-.34-1.45-2.08-1.79-2.38-3.29-1.7-2.17-1.9-5.42-4.55-6.5-9.74 0-.95-4.36 2.16-6.43.76-3.07-1.79-1.29-3.11-2.77-.61-1.12-1.46-4.07-2-5.44-5.18-5.66 9.52-5.66 6.27-8.92C59.19 28.58 58.74 37 54 38c-1.43.71-3.08 3.09-4.88 2-1.56-2.35 7-5.5 7.21-8.81.39-1.21-6.89-10.34-8.27-10.92-2.22-2.95-1.84-1.27-3.92-2-2.77-2.31 2.83-3.85 4.52-4.75.78-.78 1.68-2 2.79-2.16 1.77-.79 2.85-5.39 4.42-.65.59 5 5.15 9.79 6.45 14.8 2 2.33 4.75 2.07 6.23 5.26.37.56 1.64 0 2.4 1.5 0 3.16.32 6.36.37 9.72 1.29 1.29 2.68-.18 3.89 1.66 0 1-4.08 7.37-2.63 8.35 3 0 6.21-.93 3.69 3.27 0 2.63-1.73 5-2 7.49-.93 2.2.85 8-2 8.25zm1.45 15.28c-.4 0-.88-1.05-1-1.35a4.13 4.13 0 0 1 .1-2.06c.29-1.08 1.13-2.76 2.48-2.66a1.77 1.77 0 0 1 1 .47c1.21 1 1.08 2.4.87 3.82a1.63 1.63 0 0 1-1.34 1.62 10.58 10.58 0 0 1-2.15.16zm1.87 8.19a3.32 3.32 0 0 1-1.76-1.78c-.5-1-.2-1.74 1-1.82.46-.94 1.42-2.57 2.44-1.32a6.08 6.08 0 0 1 .79 3.54 1.91 1.91 0 0 1-.45 1.14c-.4.43-.79.27-1.32.27a2.08 2.08 0 0 1-.64-.09zm-1.87 32.42c-4-1.9-.64-7.62 1.19-5.79.65 2 2.06 5.6-1.19 5.79zM14 131.51c-.95 0 .34-2.27.34-.17a2.63 2.63 0 0 0-.34.17zm6.25 1.71c3.39-1 2-18.55 9.1-18.55 5-2.29-11.35-7.08-13-.22a23.8 23.8 0 0 0-1.89 7.69c-.57 2.33-3.87 7.93 1.31 7.06 1.48-.1.95-.12 2.1.92 3.32.23.87 2.31 2.35 3.11zM15.77 138c2.23-.36 6.15-7 .37-7-1.8.24-2.24 6.11-.37 7zm33.46 3.84C46 140 39 142.61 35.54 140c-3.76-.43 1-5.42-1.1-7-2.55 0-3.48-2.78-6.2-.44-.46.78-.12 3.57-1.8 2.75-4.28-.1-2.72 0-2.56-3.16.37-1.14 3.76-12.47 4.08-12.73.83-2.92 5.26-5.36 8.09-4 4 .39 5.1-1.31 9 1 2 2.45 7 .79 9 2.33 2.22.13 3.57 1.71 5.53 2.89 3.26 0 .5 5.53-.28 7.36-.16 3.09-2 6-2.49 9.34-1.54 3.48-4.47 3-7.53 3.41zM29 143.13c-3.51-.75-.62-11.47 2.65-9.72 4.7.29 1 8.82-2.65 9.72zm28.3 2.43c2.76-.22 10.22-8.33 6.59-10.14-2.3-2.31 1.45-10.53 1.75-13.42.64-1.43.35-3.06.84-4.52a45.8 45.8 0 0 0 1.46-4.79 52.25 52.25 0 0 0 1.06-9.55c.07-2.53.13-5.52-1-7.85-.12-3.95-2.05-7.12-2.26-10.53-1.29-2.61-1.18-5.81-2.47-8.09-.46-5.14-2.53.46-3.11 1.43-.55 3.24-5.65 7.74-7.4 10.38-2.47 1.62-4.57 10.35-7.12 10.78-1.8 1 .57 3.2.09 4.7-1 1.18 2.07 2.94 2.07 5.62-.74 1.5-6 1.66-2.6 2.79 1.31.93 2.14 2.11 4.08 2.78 2.1 0 12.4 2.24 12.72 5 1.59 2.12-2.64 17.79-3.8 20.67-.23 1.84-3 3.61-.92 4.79zm-44.52 17.88c-6-1.51-9.35-9-5.35-14.37 1-2.34.8-5.69 2-7.67.76-2 2-3.27 2.14-5.35 2.85-3.54.88 5.1 6.17 3.34 2.68-3.34-.81 7-.83 7.65a28.24 28.24 0 0 0-1.57 14.54c-.25 1.84-1.06 1.73-2.55 1.84zm16.57 5.85c5.46-.76 11.27-.8 17-1 4.86-1.37 2.09-4.05 3.73-7.34.1-3.25 1-5.84 1-8.87-1.06-1.51-.27-4.54.71-5.8.75-1.5-15.08-1.91-16.61-2.76-2.37-.23-3.16-2.28-3.16 1.41a1.77 1.77 0 0 1-3-.43c-3-2.68-3.08 1.29-3.08-5.2-.21-1.2-3.69-.85-4.24-.31-.22 4.12-8.2 24.18-2.74 26.34.32 0 10.19 3.84 10.32 4zm48.81.15c-2.47-1.34-.27-3.65.5-5.3 3.05-6.6.12-16.21-.13-23.27-.15-4.08-1.05-3.58 3-3 1.56.22 3.21-.67 2.08 2.35-.54 3.85.74 7.95.07 12.05 0 4-1.08 7 1.4 10.88 1 1 3.34 3.87 1.37 5.26-3.17 0-5.43.88-8.25 1zm-17.75 0c3.33-.08 7.39-1.77 1.84-3-2.34-.51-1.66-7.92-2.39-10.9-1.43-5.87 18.75-15.47 16.61-19.42-1.3-2.4-.34-5.27-.53-7.73 0-1.69 3.07-14.64.55-13.39-2.2 3.31-5.84-3.74-3-5.14 2.94 0 2.6 4.55 4 4.55.24-.2 3.47-13.49-.17-10.87-.25.18-1.35 0-1.67-.06a4.57 4.57 0 0 1-1.26-.25c-1.07-.41-1.06-1.15-.82-2.12a4.94 4.94 0 0 1 .77-1.94 2.31 2.31 0 0 1 2-.76c.73.21.7.87.83 1.5s.64 1.58 1.45 1.27c2.88-1.08-1.5-4 1.18-5.3 1.89 0-1.54 28.84-1.63 32.21-.37 2.91-2.58 7.55 2.21 8.11a11.35 11.35 0 0 1 1.37.47c.5.13 1 .24 1.5.32 1.88.32 3.79.41 5.67.73a13.83 13.83 0 0 1 2.73.74 1.74 1.74 0 0 0 1.94-.25 2.64 2.64 0 0 0 .55-1.52 28 28 0 0 0-.38-9.2 31.53 31.53 0 0 0-1.12-4.49 12.09 12.09 0 0 0-.65-1.62 8.74 8.74 0 0 1-.68-1c-1.55-4.73-2.48-9.69-4.08-14.49a11.45 11.45 0 0 1-.14-1.82c-.09-.64-.22-1.27-.37-1.9-.28-1.18-.66-2.34-1-3.51s-.4-2.26-.76-3.34-1-2.3-1.39-3.52a82.33 82.33 0 0 1-2.22-11.85c-.22-1.74-.42-3.49-.5-5.24a6.16 6.16 0 0 1 .15-2.79c0-2.92-2.69-19.24 2.45-19.24.61 1.24 14.92 3.5 15 3.46 5-.34 25.68-1.1 27.45 7.14.83 1.34 2.69-.09 3.06 1.45 1.64 1.63 2.54-5.34 2.4-6.09-2.68-1.35-2.56-3.83-5.43-1.38-7 0-11.05-4.69-17.75-5.76-1.18-.19-10.09-3.51-11.24-2s-6.89-1.45-8.92-1.94c-.82-.19-1.69-1.24-2.19-1.31C82.93 43.92 87.3 32 80 37.44c-2 2.05-3.81 1.59-6 2.31-2.45 2.92 2.83 2.44 4.13 2.95 2 3-7.42 7.39 1 8 2.54.62-.86 5.69-1.23 7.33-2.7 4.75-2.9 9.54-2.9 15.62-1.76 4.4-7.71-8.59-8.28-9.72-1-6.27-4.2-7.93-10.24-7.93-1.18-.23-.32-3.74 0-4.43 5.17-4.67-4.54-3.5-5.46-2.11 0 4.05 4.76 12 2.86 15.76-1.7 1.44-1.52 10.72-4.06 12.35-2.13 1.37-13.51 21.79-9.72 24.08 1.89 2.54.67 3.19-2 3.19-2.33-2.06-.95 1.86-1.4 3.29-.14 3.59-3.4.65-3.81 2.92-2 3.37 3.92 2.47 6.27 2.47.47-.18.26-2.09.26-2.34.88-2.22 5.78-1.76 3.29-4.43 0-2.66-1.56-6.8-.57-8.8 3.57-1.42 5.31-7.45 7.46-10.32.2-1.52 1.52-1.59 1.76-2.58 3.59-2.85 9.37-12.52 9.95-17.12 1.06-2.52 3 4.58 3 5.39 4.24 11.51 9.28 31 4.33 42.24-.3 5-2.77 10.24-3.71 15.15-2.49 5 6 2.87 5.64 6.29-1 1-2.37-2.08-4.07 1.1-4.21 4.76-5.06 9.77-12 9.77-4.72 2.36 1.27 6.06 1.55 9.59 2.17 4.88-3.44 9.75 4.4 12zm-28.51 1.69c1.46 0 11.44-.41 11.5-.54s4.6.15 5.13.15c2.84-1.88 1.45-6.63 2.84-7.32 1.41-1.82-.66-10.07 2.07-8.25 2.52 3.85.1 11.75 2.39 14.38 1.51 3.5 17.61-.62 11.6-4-7.35-.09-5-.16-5.53-6.8-.58-2-1.2-3.87-.27-5.71.57-.51 14.4-12 14.4-13.19 1.85-1.34.86 8.25 1.82 10.08a4.7 4.7 0 0 1 .15 1.27c.07.51.15 1 .23 1.53a27.72 27.72 0 0 1 .49 5.93c-.12 2-1.1 3.39-1.86 5.14-.18.41-.37.81-.56 1.21a9.46 9.46 0 0 0-1.3 3.85c0 1.58 1.79 1.88 3.08 1.88 2.62-1.3 9.26.69 9.88-3.15 1.34-2.08-2.81-6.16-3.27-8.08 0-5.63 1-11.25 0-16.58 0-5.87 1.66-3.56 5.83-3.42a6.7 6.7 0 0 0 3.84.52c1.72-.54 1.78-3.14 1.93-4.61.27-2.77-.58-5.12-1-7.81-.19-1.26-.2-2.54-.35-3.8a59.25 59.25 0 0 0-1.1-7c-.81-3.38-2.5-6.55-3.31-9.89-.38-1.55-.4-3.15-.8-4.69s-1-3-1.36-4.49c-.49-1.91-.93-3.83-1.54-5.72a47.2 47.2 0 0 1-1.13-4.65 145.83 145.83 0 0 1-2.57-17.73 76.36 76.36 0 0 1-.32-8.39 13.09 13.09 0 0 1 .83-5.25c1.57-1.57 2.77-.83 4.4.6a7.51 7.51 0 0 0 3.08 1c1.1.22 2.22.36 3.34.48 2.4.25 4.8 0 7.21 0a80.51 80.51 0 0 1 14.89 1.15c2.36.47 8 1.68 6.82 5.27-1.89 1.88-1 4.46 1.87 4.46 3.78 1.26 4.58 91.86 4.58 96.22.63 1.12-1 3.29 1.66 2.43 0 0 .06-.21.06-.25a26.5 26.5 0 0 0 .24-3.79c.11-2.61.13-5.22.21-7.84.1-3.61.1-7.21.13-10.81 0-4.22.12-8.44.07-12.66 0-4.48.06-9 0-13.44s-.19-8.85-.23-13.27c0-4-.46-8.07-.54-12.11-.06-3.31-.42-6.49-.79-9.77-.12-1.05-.09-2.09-.16-3.14a14.27 14.27 0 0 0-.86-3.23 13.14 13.14 0 0 1-.69-6.28 9 9 0 0 1 1.31-3.25c.49-.77 1.49-2.52 2.34-2.91 2.44-1.52 1.52-6 1.52-8.18-.76-1.55-3.55-2.23-3.55-4.08-.85-1.43-2.78-.83-4.75-.09l-.21-1.21c7.07-4.51-6.19-13.62-5.36-2.07.12 1.76 3 1.26 3.43 2.49l.49 1.41c-1.26.44-2.43.7-3.15.22-1.21-.29-3.74-2.68-4.27-2.68-3.44-1.7-8.6-1.89-12.22-3.11a7.93 7.93 0 0 0-4.31-1.75c-3.07-.36-6.25.38-9.26-.6a4.89 4.89 0 0 1-2.94-2.6A13.86 13.86 0 0 1 87 40a14 14 0 0 1-.77-3.31c0-9.42-11.46 3.86-13.59 1.73-.14-5.71-3.16-8 3.48-10.09 3.22-3.75-5.46-3.79-6.34-1.47-.07.2-1 .3-1.17.31a2.42 2.42 0 0 1-1.25-.36c-1.72-1-3-3.12-3.92-4.82a25.52 25.52 0 0 1-1.1-2.72 33.86 33.86 0 0 0-2-4.14c-1.43-2.62-3-5.49-5.33-7.43-.82-.68-1.92-1.37-3-1-1.28.49-2.33 2.29-2.84 3.48A16.21 16.21 0 0 1 47 11.94c-1.42 1-3 1.84-4.3 2.93-1.14.91-2 2.43-.72 3.69.82.8 2 1.16 2.82 2s11.1 11.33 9.93 12.1c-3.06.09-8.73 6.75-8.73 9.44 1.71 3.41 12.31-7.9 12.31-.34.3.46 3.16 4.74 2.08 5.27-1.77 0-10.83-1.08-11.64-.28-.37.37-.4 1.8-.43 2.3a10.83 10.83 0 0 0 .18 2.46c.53 3.09 1.76 6 2.25 9.1a10.82 10.82 0 0 1-.16 4.56c-.21.77-.47 1.52-.65 2.31s-.14 1.83-.38 2.66a18.8 18.8 0 0 1-2.75 5.37c-.58.84-1.17 1.66-1.73 2.51-.29.44-.58.89-.85 1.33-.15.26-.48 1.23-.73 1.35-1.26.63-6.18 12.35-6.18 14.63-1.64 2.38 1.48 5.05-3.13 5.05-2.91 1.75 1 6.91-2.53 6.91-1.76.57-1.45 3.94-3.83 2.55-1.91-.46-7.75-1.51-9.12-.83a2.74 2.74 0 0 1-1.71.83c-2.5 1.69-8.23 32.42-10 35.82s-2.84 14.57-1.16 16.64c.79.95 4.78 2.17 5.92 2.17 2.15 1.08 17.62 7.15 19.1 6 .91-.06.47.09 1.05.66zM206.2 112c14.76 0 23.57-15.92 25.12-20.18.21-.48.09-.74-.1-.83s-.38-.08-.61.42l-.94 1.54c-6.62 10.22-15.27 15.18-26.45 15.18-5.21 0-8.58-2.85-8.58-7.28 0-7.8 10.54-16.21 27.56-16.21 11.58 0 20.35.78 28.08 1.47l2.69.25a110.37 110.37 0 0 0 12.78.71c10.53-.26 17.85-6.21 18.2-7.79a.47.47 0 0 0-.23-.57h-1.19l-.74.19-1.41.37a37.3 37.3 0 0 1-7.55 1.52l-1.69.16-6.23.4-33.77-.18c-20-.13-29.68 5.29-34.27 9.85-3.09 3.07-4.8 6.71-4.8 10.23.01 6.41 5.68 10.75 14.13 10.75zm41.29-21.87c1.41-.71 2.24-1.13 2.24-1.93a.84.84 0 0 0-.91-.91c-1.14 0-7.11 3.17-12.29 8.15-6 5.72-10.35 12.94-14.59 19.94C212.7 130.59 204 145 180.33 145c-13.71 0-23.28-6.51-23.28-15.84 0-11 12.63-19.19 23.93-19.19 9.28 0 14.81 3.9 14.81 10.44 0 9-9 14.54-17.32 14.54a25.62 25.62 0 0 1-11.06-2.2c-1.48-.63-1.53-.56-1.66-.39l-.12.16.14.19c.77 1 6.31 3.88 12.15 3.88 10.05 0 20.45-6.12 20.45-16.36 0-10.63-11.23-14.49-18.78-14.49-13.57 0-25.48 10.16-25.48 21.75s10.71 19.71 26 19.71c20.67 0 37.63-10.61 47.75-29.88 5.57-10.62 10.5-18.78 13.9-23a16.3 16.3 0 0 1 5.73-4.21zM318.42 132c-.33 0-.47.16-1.06.85l-5.09 5.46c-4.49 4.68-7.41 6.34-8.55 6.34-.92 0-1.32-.39-1.32-1.32 0-2.76 5.65-10.84 9.78-16.74l4.54-6.74-.55.05-6.1.38-.07.12a96.17 96.17 0 0 1-5.84 8.73l-.66.85-.43.42c-1.38 1.28-2.5 1.88-3.53 1.88-.33 0-.61 0-.86-.75a2.78 2.78 0 0 0-2.95-2 9 9 0 0 0-2.73.47l5.93-10.09-6.36.41c-.18.08-3 3.11-3 3.11l-5 5.38-1.52 1.62-4.29 4.52-1.29 1.33a51.19 51.19 0 0 1-8 7.22 5.52 5.52 0 0 1-3 1.2c-1.17 0-1.31-.55-1.31-1 0-3.1 10.67-19.58 13.34-22.82l.38-.46-5.06.21c-1.49.07-1.89.78-3.06 2.89l-1.9 3.23.22-1.94c0-2.91-1.55-4.67-4.25-4.83a17.26 17.26 0 0 0-8.22 1.68 19.61 19.61 0 0 0-6.85 5.22c-1.37 1.75-4.61 6.25-5.16 10.22 0-.07-1.85 1.75-1.85 1.75-3.3 3.05-6.7 5.88-9.12 5.88-1.32 0-1.78-1.11-1.78-2.15 0-3.61 2.49-7.8 9.15-19l3-5.06 3.91-6.91c3.76-6.74 8-14.38 10.76-17.52l2.47-2.67c1.45-1.52 2.25-2.37 2.25-3.09a.6.6 0 0 0-.64-.64c-.46 0-1.68 1.27-5.62 5.62l-2.76 3-.43.44c-2.66 2.74-10.76 11.06-19.9 28.46-2.91 5.65-4.59 10-4.59 15.39 0 3.87 1.4 5.75 4.27 5.75s7.89-4 10.86-7c.22 4.35 2.43 7 6.08 7 3.46 0 8.24-4.69 11.23-7.69l-.05 1c0 2.94.52 4.86 1.6 5.86a3.49 3.49 0 0 0 2.78.83c4-.31 7-3.27 9.69-5.88l.4-.39 2.8-2.78 3.7-3.87 2.9-3.2 1.54-1.71 3.29-3.67-14 21.53 7-.41 8.46-14.38c.58-.39 1-.68 1.56-.53.26.07.34.39.47.9l.3.92c.47.94 1.71 1.45 3.49 1.45a8.93 8.93 0 0 0 3.81-1.46 22.48 22.48 0 0 0-1.92 3.61 10.56 10.56 0 0 0-.67 3.63c0 1.46.3 6.22 4.17 6.22 2.77 0 5.89-2.63 10.33-7.15.06-.06 5.57-5.87 5.57-6.42a.7.7 0 0 0-.69-.76zm-67.74 12.38c-1.06 0-1.6-.82-1.6-2.43 0-6.65 8.66-20.12 15.74-20.12 1.49 0 2.35 1 2.35 2.81 0 6.48-11.09 19.77-16.49 19.77zm344.66-12.59c-.45 0-.65.23-1.24.91l-5.1 5.51c-4.73 4.94-7.48 6.26-8.35 6.26s-1-.27-1-1c0-2.67 5.85-11 9.72-16.56l4.87-7.25-1.12.1-6.24.39-.15.24a95.83 95.83 0 0 1-5.82 8.7l-.66.85h.08a1.83 1.83 0 0 0-.49.4c-1.33 1.23-2.39 1.8-3.34 1.8-.29 0-.42 0-.6-.56a3.07 3.07 0 0 0-3.21-2.23l-2.21.38 5.89-10-6.88.43a20.64 20.64 0 0 0-2.7 2.62l-6.4 6.66-3.1 3.18c-6.48 6.66-11.6 11.92-13.82 11.92-1 0-1-.44-1-.76 0-3 10.68-19.5 13.28-22.64l.76-.93-5.67.23c-1.65.08-2.09.88-3.29 3l-1.25 2.11.07-.67c0-3.22-1.7-5.12-4.54-5.12-6.18 0-14 4.46-19.4 11.09l-1 1.23-.75.85-.9 1.08c-1.69 2-7.52 8.53-13.59 11.57L521.44 120l-7.4.57-.14.28-2.84 5.19.15-1.33c0-3.23-1.91-5-5.38-5-5.43 0-13.89 4.4-18.1 9.41l-3.73 4.47c-2.4 2.78-5.4 4.37-8.24 4.37 2.48-2.77 5-7.32 5-11.27 0-4.23-2.41-7-6.12-7-4.84 0-10.68 2.8-15.63 7.5a64.81 64.81 0 0 0-5.1 5.35l-5.25 5.65c-4.73 4.94-7.48 6.26-8.35 6.26s-1-.27-1-1c0-1.78 1.1-3.51 6.37-11.78l7.61-12-6.29.45a71.94 71.94 0 0 0-9.88 10.45l-4.56 5.91c-2.53 3.3-6 7.81-6.46 8.08.1 0 0-.08 0-.34 0-3 6.19-13 10.71-20.32l2.6-4.21-6.26.44a49.08 49.08 0 0 0-6.23 6.22l-6.26 7.77a48.55 48.55 0 0 1-6 6.9c-2.43 2.22-4.6 3.49-6 3.49a3 3 0 0 1-3.09-3c0-1.71.67-3.55 2.16-3.55l2.28.37c.86 0 2.63-.84 2.63-3.33 0-1.69-1.19-2.83-3.11-3-3.35-.26-6.14 2.5-6.64 6.57-5 4.44-9.2 6-11.44 5.9-2.6-.08-3.39-1.11-3.39-4.39 0 0 .26-2.15.32-2.63 7.23-1.53 19.23-5.88 19.23-12.72a4.88 4.88 0 0 0-5.19-5c-4.86 0-10.87 3.28-16.49 9L383 132l-1.23 1.34a69.42 69.42 0 0 1-5.54 5.88c-3.26 3-6.6 5.81-8.94 5.81-1.4 0-1.51-1.44-1.51-1.88-.14-4.06 6-13.3 12.58-23.08l5.57-8.44 19.19-29.93-5.71.34c-2 .09-3.51 2.39-6 6.2l-2.67 4.16c-11.72 16.47-24.19 24.75-28.18 24.75-2.51 0-2.72-1-2.72-2 0-1.84 1.92-4.81 4-8l1.63-2.55c2.29-3.7 4-9.18 4-12.75s-.79-8.28-4.57-11.15c-3.55-2.7-8.91-3.09-15.93-1.15-11.57 3.06-19.62 11.82-19.62 21.34v.11c0 6 3.44 9.54 9.1 9.56a15.32 15.32 0 0 0 11.21-4.72c3.94-4 6.18-10.35 6-16.95 0-2.16-.16-3.36-.55-3.55l-.38-.19-.15.48v3.7c-1.28 12-7.52 19.06-16.29 18.52-5.37-.33-5.78-5.75-5.78-7.4a15.78 15.78 0 0 1 5-11 27.74 27.74 0 0 1 19-7.92c4.1 0 8.52 2.36 8.52 7.44 0 3.25-1.6 7.15-5.34 13l-1.33 2.07c-2.44 3.75-3.78 5.82-3.78 8.92 0 6.31 5.66 6.31 7.52 6.31 5.23 0 13.7-6.9 19.67-12.95l-10.36 16.53c-3.41 5.45-6.56 11.43-6.56 18.27 0 4 1.52 6 4.53 6 3.28 0 9.48-5.19 12-8.09L383 135l-.12 1.27c0 3.5 1.11 6.67 3 8.51a6.58 6.58 0 0 0 4.92 1.92c4.24-.09 7.82-1.76 12.24-5.65.49 3.86 3 5.65 5.35 5.65 2.58 0 4.59-1.51 7-3.48a40.46 40.46 0 0 0 4.82-5.2l2.51-3.23c1.43-1.85 3.15-4 5-6.15-3.68 5.76-5.59 10.32-5.59 13.7 0 1.87.38 4.36 3.71 4.36 1.27 0 3.4-2.19 7.37-7.56l.42-.56 1.69-2.23c1.46-1.94 3-3.93 4.6-5.89-2.24 3.4-4.48 7.38-4.48 9.75 0 1.52.32 6.5 4.45 6.5 2.87 0 6-2.65 10.53-7.23 1.91-2 5.07-5.49 5.51-6.23l-.05.35-.38 4.29c0 5.55 2.36 8.84 6.31 8.84 5.52 0 9.42-3.56 12.19-6.67a3.74 3.74 0 0 0 .91.15 13.26 13.26 0 0 0 9.61-4.16c.87-.91 1.37-1.46 1.66-1.83v.79l-.39 3.06c0 5.84 2.06 8.66 6.31 8.66 4.46 0 9.38-5 12-8.17l-4.8 9.82c-15.21 8.54-26.06 15.26-26.06 23a6.29 6.29 0 0 0 1.92 4.41 5.75 5.75 0 0 0 4.11 1.74c9.3-.14 21.54-21.13 25.47-29.2 3.76-1.11 9.87-5.75 14.71-11.13l.83-.92 1.22-1.4c-.1 1-.3 2.77-.3 2.78 0 7.47 3.48 9 6.4 9 3.47 0 8.14-4.5 10.93-7.28v.31c0 4.82 1.43 7 4.63 7 2.69 0 6.09-2.87 10.71-7.51l6.12-6.44 2.1-2.27 4.41-4.56-13.5 20.82 7.67-.45 8.52-14.49c.49-.3.86-.52 1.24-.41.12 0 .21.42.28.7l.31.94c.52 1.07 1.85 1.64 3.75 1.64a7.38 7.38 0 0 0 3.17-1.09l-1.53 2.88a10.87 10.87 0 0 0-.69 3.73c0 1.52.32 6.5 4.45 6.5 3 0 6.2-3.07 10.45-7.41 5.6-6 5.6-6.46 5.6-6.63.01-.74-.5-.82-.88-.82zm-192.9-9.9c1 0 1.32.34 1.32 1.23 0 5.86-8.48 10.91-14.61 12 1.77-4.93 8.85-13.21 13.29-13.21zm59.74 22.56c-1.26 0-1.88-.95-1.88-2.9 0-7.29 8.31-19.66 14.63-19.66 2.36 0 2.71 2.29 2.71 3.65 0 8.46-8.52 18.93-15.46 18.93zm16.94 29.37c-1.83 0-2.61-.95-2.61-3.16 0-6.89 11.9-13.81 19-17.95l1.7-1 .66-.4c-2.66 6.52-12.64 22.53-18.75 22.53zm12.94-29.37c-1.79 0-1.87-2-1.87-2.34 0-6.51 9.28-20.21 16.58-20.21 1.66 0 2.25.76 2.25 2.9-.02 4.71-10.1 19.67-16.96 19.67zm35.54 0c-1.06 0-1.6-.82-1.6-2.44 0-6.65 8.66-20.12 15.75-20.12 1.49 0 2.34 1 2.34 2.81 0 6.49-11.09 19.77-16.5 19.77z" transform="translate(-4.5 -6.1)"/></svg>