<svg xmlns="http://www.w3.org/2000/svg" width="17" height="15" viewBox="0 0 17 15"><path fill="#FFF" d="M10.95.144c1.685-.496 2.984.27 3.577 1.18.673-.232 1.33-.482 2.01-.71-.003.862-.52 1.514-.856 1.77.687.17 1.306-.492 1.306-.492-.17 1-1.006 1.788-1.563 2.024-.23 6.75-3.175 11.217-10.077 11.082H4.9c-.41 0-4.165-.46-4.9-1.887 2.272.198 3.894-.42 4.694-1.175-.96-.3-2.68-.477-2.98-2.95.35.106.565.228 1.19.12C1.704 8.245.374 7.53.45 5.33c.285.328 1.067.536 1.34.472C1.087 5.562-.18 2.442.896.85c1.816 1.854 3.734 3.606 7.15 3.773C8.254 2.33 9.183.793 10.95.143z"/></svg>
