<svg id="Layer_1" xmlns="http://www.w3.org/2000/svg" xmlns:xlink="http://www.w3.org/1999/xlink" viewBox="0 0 56 60"><style>.st0{display:none}.st1{fill:gray}.st1,.st2{display:inline}.st3,.st4{clip-path:url(#SVGID_2_);fill:gray}.st4{clip-path:url(#SVGID_4_)}</style><g class="st0"><path class="st1" d="M6.2 48.7c-.4-.1-.6-.5-.6-.9 0-2.5.4-4.3 1-5.8.7-1.5 2.7-1.9 5-2.4s5-1 6.2-2.8c2.1-2.9 8.5-23 10.7-30.5.1-.2.2-.4.5-.6.2-.1.5-.1.7-.1 4.9 1.5 10.4 1.5 16.9 0 .3-.1.6 0 .8.2s.4.4.4.7c0 2.6.1 8.9 1.3 11.9 1.3 3.2 1.3 10.9 1.3 11.2 0 .3-.1.6-.4.7-.1 0-5.2 3.9-9.2 8.3-2.3 2.5-3.8 4.7-4.5 6.5-.8 2-1.4 3.4-2 4.6-.1.2-.3.4-.5.4-2.9 1-6.3 1.5-10 1.5-5.4.2-11.5-.9-17.6-2.9zm28.3-4.2c.8-2 2.4-4.4 4.9-7.1 3.6-3.9 7.8-7.2 9.1-8.2 0-1.7-.2-7.6-1.2-10-1.1-2.8-1.4-8-1.5-11.4C40 9 34.8 9 30.1 7.7c-1.4 4.8-8.2 26.8-10.7 30.2-1.7 2.3-4.8 2.9-7.3 3.5-1.6.3-3.4.7-3.7 1.4-.5 1.1-.8 2.5-.8 4.3 9.6 3.1 18.7 3.6 25.2 1.5.4-1 1-2.4 1.7-4.1z"/><path class="st1" d="M8.6 54.3c-2-1.3-3-2.8-3-4.5v-2c0-.3.1-.6.4-.8.2-.2.6-.2.8-.1 10 3.3 19.5 3.9 26.2 1.6.4-.1.8 0 1 .3s.3.7.1 1c-2 3.7-4.3 5.1-8.3 5.1-1.2 0-2.7 0-4.3.1-2.2 0-4 .1-5.6.1-4.3-.1-6.5-.2-7.3-.8zm-1.1-5.2v.7c0 1.1.7 2 2.1 2.9 1 .6 7.9.4 12 .4 1.6 0 3.1-.1 4.3-.1 2.5 0 4-.6 5.3-2.1-6.5 1.6-15 .9-23.7-1.8zm33.2 4c0-6.8-.5-11.4-1.5-14.8-.1-.3 0-.7.2-.9 4.2-4.5 9.3-8.4 9.5-8.5.3-.2.8-.2 1.1 0s.5.6.4 1c-2.7 9.7-4 17.1-4.1 23.2 0 .5-.4.9-.9.9h-3.7c-.6.1-1-.3-1-.9zm7.1-20.9c-1.8 1.5-4.4 3.7-6.7 6.2 1 3.4 1.4 7.7 1.4 13.9h1.9c.2-5.6 1.2-12 3.4-20.1z"/></g><g class="st0"><g class="st2"><defs><path id="SVGID_1_" d="M2.8 3.6h50.4v54.3H2.8z"/></defs><clipPath id="SVGID_2_"><use xlink:href="#SVGID_1_" overflow="visible"/></clipPath><path class="st3" d="M52.9 53.6l-2.4-7.9c-1.3-4.8-5.1-8.4-9.8-9.7l-.7-.2c-.1-.1-.2-.1-.3-.1-.9-.2-1.8.1-2.5.7l-.1.1c-2.7 3.3-6 5-9.4 5-4.2 0-7.4-2.6-9.4-4.9-.6-.7-1.6-1-2.5-.8-.1 0-.2.1-.3.1l-.6.2C10.1 37.3 6.4 41 5 45.8l-2.4 7.9c-.3 1-.1 2 .5 2.7.6.8 1.4 1.2 2.4 1.2H50c1-.1 1.9-.5 2.5-1.3.6-.8.7-1.8.4-2.7zm-2.1 1.5c-.2.3-.5.5-.8.5H5.8c-.3 0-.6-.2-.8-.4-.2-.3-.3-.6-.2-.9l2.4-7.9c1.1-4 4.3-7.2 8.5-8.2l.6-.2c.1 0 .2-.1.2-.1.2-.1.4.1.5.2 3.2 3.6 7 5.6 10.9 5.6 3.9 0 7.8-2 10.9-5.6.1-.1.3-.2.5-.2.1 0 .1.1.2.1l.7.2c4 1 7.3 4.2 8.4 8.2l2.4 7.9c.1.2 0 .5-.2.8zm0 0"/><path class="st3" d="M7.7 31.4l1.4.4c4 1 8.1 1.7 12.1 2 1.9 1.9 4.2 3 6.7 3 2.4 0 4.8-1.1 6.7-3.1 4.1-.4 8.1-1 11.8-1.9l1.4-.4h.1c.6-.2 1.1-.7 1.3-1.2.2-.6.2-1.2-.2-1.8l-3.9-6.6c-1.4-2.4-2.5-4.9-3.2-7.2l-.3-.9c-1.4-4.5-5-7.9-9.5-9.2l-.7-.2c-2.5-.7-5.2-.7-7.7 0l-.6.2c-4.6 1.3-8.1 4.8-9.5 9.3l-.3.9c-.9 2.7-1.9 5.1-3.2 7.2l-3.9 6.6c-.2.4-.2 1.2.1 1.8.2.5.7 1 1.4 1.1zm20.2 3.3c-5 0-9.3-6.1-9.8-13.2 7.7 1.5 11.5-1.7 13.2-4 1.6 1.9 3.8 2.6 6.4 2.1v.6c0 7.8-4.6 14.5-9.8 14.5zM12.1 22.8c1.3-2.3 2.5-4.9 3.4-7.7l.3-.9c1.2-3.8 4.2-6.7 8.1-7.9l.6-.2c2.1-.6 4.4-.6 6.5 0l.7.2c3.8 1.1 6.8 4 8.1 7.8l.3.9c.8 2.5 2 5.1 3.4 7.7l3.9 6.6h-.1l-1.4.4c-3 .7-6.2 1.3-9.4 1.7 2-3 3.3-7 3.3-11.3 0-.7-.1-1.4-.2-2.1-.1-.3-.2-.6-.5-.7-.3-.2-.6-.2-.8-.1-2.8.8-4.7.2-6.1-2.1-.2-.4-.6-.5-1-.5-.4-.1-.8.2-1 .6-1 1.9-4.2 6.2-12.9 4-.3-.1-.6 0-.9.2-.3.2-.4.5-.4.8 0 4.3 1.3 8.3 3.4 11.3-3.2-.3-6.5-.9-9.7-1.7l-1.4-.4 3.8-6.6zm0 0"/></g></g><defs><path id="SVGID_3_" d="M1.9 3.6h52.6v54H1.9z"/></defs><clipPath id="SVGID_4_"><use xlink:href="#SVGID_3_" overflow="visible"/></clipPath><path class="st4" d="M28.1 36c7.2 0 13.5-8.9 13.5-18.9 0-7.5-6-13.5-13.5-13.5s-13.5 6-13.5 13.5c0 10.1 6.3 18.9 13.5 18.9zm0-30.2c5.3 0 9.7 3.7 11 8.6-2.4.5-4.9-.5-6.2-2.6-.1-.3-.3-.5-.5-.7-.5-.3-1.2-.1-1.5.5C29.1 15 23.6 16.3 17 15c.9-5.3 5.6-9.2 11.1-9.2zm-6.3 11.9c4.4 0 8-1.3 10-3.7 1.5 1.7 3.8 2.7 6 2.7.5 0 1-.1 1.5-.2 0 .2.1.4.1.6 0 8.9-5.3 16.7-11.3 16.7-6 0-11.3-7.8-11.3-16.7 1.7.3 3.4.6 5 .6zm0 0"/><path class="st4" d="M54.2 53.4l-2.5-8.2c-1.4-5-5.3-8.8-10.3-10.1l-.7-.2c-.1-.1-.2-.1-.3-.1-.9-.2-1.9.1-2.6.8l-.1.1c-2.9 3.4-6.3 5.2-9.8 5.2-4.4 0-7.8-2.8-9.8-5.1-.6-.7-1.6-1-2.5-.9h-.1c-.1 0-.2 0-.3.1l-.6.2c-5 1.3-8.9 5.1-10.3 10.1L2 53.5c-.3 1-.1 2.1.5 2.9.6.8 1.5 1.2 2.5 1.2h46.1c1 0 2-.5 2.6-1.3.7-.8.9-1.9.5-2.9zM52 55c-.2.3-.5.4-.9.4H5c-.3 0-.6-.2-.8-.4-.2-.3-.2-.7-.2-1l2.5-8.2c1.2-4.2 4.5-7.5 8.9-8.6l.5-.2c.1 0 .2 0 .3-.1.2-.1.4.1.5.2C20 40.9 24.1 43 28.1 43c4.1 0 8.1-2.1 11.4-5.8.1-.1.3-.2.5-.2.1 0 .1.1.2.1l.7.2c4.2 1.1 7.6 4.4 8.8 8.6l2.5 8.2c.1.4-.1.7-.2.9zm0 0"/></svg>