<svg enable-background="new 0 0 349.667 349.667" viewBox="0 0 349.667 349.667" xmlns="http://www.w3.org/2000/svg"><path d="m174.833 197.204c24.125 0 80.846-29.034 80.846-98.603 0-54.456-7.35-98.601-80.846-98.601-73.494 0-80.846 44.145-80.846 98.602.001 69.568 56.721 98.602 80.846 98.602zm-68.763-115.059c5.68-10.983 17.963-23.674 44.381-23.111 0 0 15.747 38.194 93.05 21.042.312 6.101.41 12.326.41 18.526 0 34.005-15.016 55.075-27.612 66.762-15.871 14.727-33.493 20.072-41.465 20.072s-25.594-5.345-41.465-20.072c-12.597-11.687-27.612-32.757-27.612-66.762-.001-5.501.078-11.021.313-16.457z"/><path d="m324.926 298.327c-4.128-25.664-12.624-58.724-29.668-70.472-11.64-8.026-52.248-29.721-69.589-38.985l-.293-.156c-1.982-1.059-4.402-.847-6.169.541-9.084 7.131-19.034 11.937-29.574 14.284-1.807.402-3.304 1.662-4.009 3.374l-10.791 26.206-10.791-26.206c-.705-1.712-2.202-2.971-4.009-3.374-10.54-2.347-20.49-7.153-29.574-14.284-1.769-1.388-4.189-1.6-6.17-.541-17.134 9.156-58.238 31.294-69.83 39.107-19.62 13.217-28.198 61.052-29.719 70.507-.15.938-.063 1.897.253 2.792.703 1.982 18.709 48.548 149.84 48.548s149.137-46.565 149.84-48.548c.317-.896.404-1.856.253-2.793zm-165.266-15.584c0 .397-.234.757-.599.916l-16.174 7.085 16.174 7.084c.364.159.599.52.599.916v5.301c0 .341-.174.658-.462.842-.163.105-.351.158-.538.158-.144 0-.287-.031-.422-.094l-24.001-11.15c-.352-.164-.579-.518-.579-.907v-4.3c0-.39.227-.744.579-.907l24.001-11.15c.311-.143.672-.12.96.064s.462.502.462.844zm24.408-12.667-10.701 36.252c-.125.424-.516.717-.959.717h-5.051c-.314 0-.611-.149-.801-.402-.188-.252-.247-.578-.158-.881l10.701-36.252c.125-.426.516-.717.959-.717h5.051c.314 0 .611.148.801.4.188.253.247.58.158.883zm31.941 22.968c0 .392-.229.746-.584.909l-24.002 11c-.133.061-.274.092-.416.092-.188 0-.377-.054-.54-.158-.286-.185-.46-.502-.46-.842v-5.301c0-.4.238-.762.605-.919l16.523-7.081-16.523-7.082c-.367-.157-.605-.52-.605-.919v-5.3c0-.341.174-.658.46-.842.287-.184.648-.209.956-.068l24.002 11.001c.355.163.584.518.584.909z"/><path d="m159.284 126.03c9.089-4.743 12.227-20.58 12.362-21.287.003-.011.288-1.062 3.175-1.062l.23-.002c2.227 0 2.922.732 2.992 1.227.135.669 3.394 16.453 12.337 21.124 6.024 3.144 13.225 3.803 18.204 3.803 6.387 0 12.802-1.118 15.964-2.784 6.82-3.591 7.426-6.189 9.905-21.238.094-.567.254-1.046.478-1.422.07-.118.192-.252.361-.438.652-.703 1.637-1.767 1.577-4.232-.007-.311.005-.846.019-1.443l.003-.143c.024-1.048.048-2.222.01-2.893-.216-3.694-3.42-5.183-5.043-5.446-6.12-1.258-13.028-1.896-20.532-1.896-3.237 0-6.581.122-9.936.363l-.588.042c-6.839.483-10.607.75-15.186 2.801-.927.415-1.956.914-3.063 1.482-1.573.811-3.912 1.717-5.108 1.98-2.018.445-3.211.446-5.23-.001-1.191-.263-3.529-1.169-5.106-1.979-1.109-.57-2.139-1.069-3.061-1.482-4.579-2.051-8.347-2.317-15.195-2.803l-.576-.04c-3.351-.239-6.691-.361-9.928-.361-7.513 0-14.409.635-20.459 1.88-1.677.274-4.905 1.77-5.121 5.457-.042.678-.015 1.908.008 2.891l.008.432c.01.482.018.903.012 1.16-.06 2.469.924 3.531 1.601 4.262.15.164.27.295.339.412.221.369.381.848.476 1.42 2.481 15.047 3.087 17.646 9.904 21.236 3.158 1.666 9.574 2.784 15.966 2.784 4.976-.001 12.175-.66 18.201-3.804zm26.141-26.423c.163-.402 2.071-3.951 18.895-4.931 2.908-.169 5.366-.251 7.515-.251 9.369 0 12.29 1.592 13.967 4.158 1.002 1.535 1.708 4.911 1.715 6.982.021 4.695-.893 13.031-7.246 16.111-3.006 1.455-7.541 2.324-12.133 2.324-8.734 0-15.677-2.906-18.572-7.775-6.245-10.489-4.158-16.569-4.141-16.618zm-63.28 5.961c.009-2.076.715-5.455 1.714-6.985 1.678-2.567 4.599-4.159 13.967-4.159 2.151 0 4.609.082 7.514.252 16.478.96 18.672 4.379 18.93 5.015.021.061 1.979 6.202-4.17 16.536-2.897 4.869-9.84 7.775-18.571 7.775-4.594 0-9.13-.869-12.136-2.324-6.35-3.077-7.267-11.414-7.248-16.11z"/></svg>